<svg width="256" height="79" viewBox="0 0 256 79" fill="none" xmlns="http://www.w3.org/2000/svg">
<path d="M241.507 21.0167V22.5167H243.007H250.413V39.5024V56.4834H243.007H241.507V57.9834V64.547H234.866H233.366V66.047V73.4356H127.998H22.6347V66.047V64.547H21.1347H14.4884V57.9834V56.4834H12.9884H5.5874V39.5024V22.5167H12.9884H14.4884V21.0167V14.4531H21.1347H22.6347V12.9531V5.56445H127.998H233.366V12.9531V14.4531H234.866H241.507V21.0167Z" fill="#F7F3F0" fill-opacity="0.85" stroke="#374C68" stroke-width="3"/>
<path d="M1.5 6.62886V1.5H6.67445V6.62886H1.5Z" fill="#F7F3F0" stroke="#374C68" stroke-width="3"/>
<path d="M1.5 77.4999V72.3711H6.67445V77.4999H1.5Z" fill="#F7F3F0" stroke="#374C68" stroke-width="3"/>
<path d="M249.326 6.62886V1.5H254.5V6.62886H249.326Z" fill="#F7F3F0" stroke="#374C68" stroke-width="3"/>
<path d="M249.326 77.4999V72.3711H254.5V77.4999H249.326Z" fill="#F7F3F0" stroke="#374C68" stroke-width="3"/>
</svg>
