<svg viewBox="0 0 588 144" fill="none" xmlns="http://www.w3.org/2000/svg">
<g clip-path="url(#clip0)" filter="url(#filter0_d)">
<path d="M90.3142 86.9004C90.5588 88.2963 90.7056 89.44 90.9665 90.5551C91.8103 94.1244 92.9966 97.5797 95.259 100.522C96.3311 101.914 97.6397 103.147 98.9686 104.307C99.5597 104.824 99.7228 105.256 99.5964 105.968C98.1329 114.331 96.6817 122.703 95.2345 131.071C95.153 131.531 95.0715 131.995 95.0511 132.459C94.9288 135.267 93.2982 137.518 92.1405 139.996C92.1405 139.662 92.1446 139.329 92.1405 138.995C92.112 135.772 92.2424 132.536 92.0182 129.325C91.7492 125.515 91.2763 121.71 90.7137 117.929C90.0656 113.538 88.9731 109.232 87.3343 105.093C85.9157 101.519 84.1791 98.117 81.6477 95.1744C81.1911 94.6454 80.6897 94.1529 80.1883 93.6604C79.5279 93.0052 78.7248 92.7121 77.7872 92.6633C76.0099 92.5697 74.3263 92.9156 72.7732 93.75C72.0598 94.1325 71.5543 94.0634 71.0733 93.4447C69.8177 91.8208 68.4154 90.2906 67.3311 88.5609C65.7209 86.0009 64.3349 83.3026 62.7002 80.3926C63.4829 80.3519 63.9639 80.3071 64.4449 80.3112C69.1288 80.3316 73.8127 80.3926 78.4965 80.3845C91.8429 80.3682 105.189 80.3031 118.536 80.299C140.088 80.2868 161.636 80.3071 183.189 80.3071C223.668 80.3031 264.147 80.2909 304.623 80.2827C310.432 80.2827 316.241 80.2909 322.05 80.2909C348.094 80.2868 374.139 80.2746 400.183 80.2787C421.548 80.2787 442.909 80.2949 464.274 80.3071C464.506 80.3071 468.069 80.356 468.069 80.356C468.069 80.356 493.898 80.531 507.081 80.3438C504.562 85.4148 502.173 90.2336 498.255 94.0389C496.812 93.5709 495.475 93.1761 494.171 92.6837C493.828 92.5534 492.508 92.3296 491.757 92.5209C489.658 93.1598 487.306 96.3344 485.639 98.7966C485.26 99.3583 482.981 104.059 482.365 105.699C480.608 110.367 479.589 115.19 478.892 120.094C478.378 123.696 477.946 127.31 477.93 130.957C477.926 131.506 477.685 137.823 477.685 139.866C476.397 137.359 475.15 135.051 474.922 132.276C474.738 130.057 474.106 127.876 473.723 125.67C472.578 119.097 471.461 112.524 470.331 105.947C470.238 105.394 470.107 104.889 470.739 104.474C473.825 102.439 475.7 99.4315 477.176 96.1593C478.313 93.6401 478.998 90.9662 479.446 88.2393C479.63 87.1201 479.385 86.819 478.187 86.8027C476.642 86.7783 470.601 86.8067 470.601 86.8067C470.601 86.8067 217.203 86.705 90.3142 86.9004Z" fill="#384C69"/>
<path d="M397.485 34.6104C398.023 34.2726 398.341 34.0854 398.647 33.8819C400.897 32.3679 402.153 30.2719 402.177 27.5492C402.218 23.3897 402.177 19.2344 402.206 15.075C402.21 14.2528 402.043 13.5406 401.594 12.8325C398.251 7.57823 393.388 4.81478 387.282 4.05371C386.874 4.00487 386.462 3.96824 385.847 3.90719C386.214 3.49206 386.442 3.15426 386.743 2.906C389.528 0.622793 392.732 -0.227814 396.303 0.0489387C398.981 0.256503 401.244 1.39607 403.335 2.95484C406.347 5.20548 408.903 7.94045 411.471 10.6632C416.93 16.4424 422.384 22.2257 427.826 28.0172C432.339 32.8197 436.831 37.6465 441.344 42.4531C441.862 43.0066 442.44 43.5031 442.991 44.0281C443.097 43.9834 443.207 43.9386 443.313 43.8898C443.345 43.4054 443.406 42.9211 443.406 42.4409C443.411 35.8517 443.411 29.2667 443.406 22.6775C443.406 21.3711 443.419 20.0646 443.394 18.7582C443.341 15.7913 443.052 12.8813 440.993 10.3051C445.355 10.3051 449.537 10.3051 453.854 10.3051C453.451 10.9522 453.068 11.4731 452.791 12.0429C452.061 13.5243 451.6 15.0953 451.588 16.7558C451.559 20.6344 451.494 24.513 451.58 28.3876C451.633 30.8946 453.219 32.5755 455.126 33.9796C455.412 34.1912 455.721 34.3703 456.133 34.6348C455.615 35.0011 455.196 35.2779 454.796 35.579C452.758 37.1337 451.441 39.0547 451.539 41.7449C451.665 45.1962 451.637 48.6556 451.877 52.0987C452.04 54.4104 452.428 56.7302 453.854 58.9198C449.354 59.2739 445.017 58.8832 440.634 58.989C440.488 58.1628 440.394 57.475 440.239 56.8035C439.729 54.5854 438.372 52.8476 436.88 51.2237C433.713 47.7846 430.492 44.3985 427.308 40.9798C422.119 35.4 416.946 29.812 411.761 24.2281C411.427 23.8659 411.047 23.5444 410.505 23.0275C410.403 23.581 410.306 23.87 410.306 24.1549C410.293 31.7249 410.244 39.2908 410.318 46.8608C410.338 49.1847 410.599 51.5208 410.909 53.8284C411.149 55.6192 411.467 57.4303 412.845 59.0135C408.451 59.0135 404.305 59.0135 400.082 59.0135C402.043 55.025 402.002 50.7679 402.165 46.5515C402.222 45.0578 402.165 43.5601 402.185 42.0664C402.226 39.2094 400.938 37.0605 398.663 35.4285C398.345 35.2046 398.007 34.9767 397.485 34.6104Z" fill="#384C69"/>
<path d="M240.753 43.4622C240.5 43.0145 240.341 42.7947 240.239 42.5465C238.89 39.2662 236.358 38.0167 232.905 38.0045C231.148 37.9963 229.355 37.687 227.647 37.2516C222.339 35.9085 219.265 32.1723 218.968 26.735C218.882 25.2088 218.96 23.6419 219.217 22.136C219.934 17.9318 222.51 15.0056 226.053 12.8404C228.605 11.2816 231.426 10.4717 234.34 9.89786C241.393 8.51003 248.237 9.23447 254.865 11.9328C257.234 12.8974 259.525 14.0532 261.946 15.1643C260.629 18.0091 259.39 20.6912 258.175 23.3244C256.749 22.1808 255.526 21.0209 254.136 20.1214C251.209 18.2248 247.878 17.3987 244.458 17.0609C240.475 16.6701 236.509 16.8167 232.661 18.1068C230.879 18.7051 229.4 19.7144 228.295 21.2528C227.337 22.5878 227.072 24.1018 227.382 25.6565C227.516 26.3321 228.014 26.9914 228.491 27.5286C228.841 27.9275 229.408 28.1676 229.913 28.4036C231.523 29.1444 233.268 29.3153 234.997 29.2502C237.096 29.1688 238.722 28.1228 239.819 26.3036C240.08 25.8722 240.353 25.4489 240.724 24.8588C241.107 25.4896 241.417 25.9983 241.723 26.503C242.787 28.2612 244.315 29.2542 246.394 29.4374C248.49 29.6165 250.609 29.7019 252.66 30.1048C259.325 31.4072 263.752 36.694 263.618 43.8326C263.503 50.0432 260.389 54.1741 255.008 56.844C251.388 58.6388 247.475 59.2981 243.492 59.6604C237.968 60.1609 232.555 59.5667 227.239 58.069C224.108 57.1859 221.206 55.798 218.524 53.641C219.84 50.6618 221.169 47.6623 222.535 44.5733C223.163 45.4361 223.668 46.2175 224.255 46.9216C226.403 49.4816 229.302 50.7554 232.469 51.427C237.712 52.534 242.966 52.4892 248.188 51.2153C249.99 50.7758 251.584 49.9496 253.019 48.7531C255.2 46.946 255.652 41.7203 252.22 39.9051C249.827 38.6394 247.299 38.4359 244.735 39.1888C243.402 39.5795 242.383 40.5156 241.686 41.7488C241.409 42.2331 241.152 42.7256 240.753 43.4622Z" fill="#384C69"/>
<path d="M533.998 57.8984C532.596 57.4019 529.106 55.8309 528.747 55.6152C527.753 55.021 526.803 54.3495 525.776 53.6657C527.121 50.6418 528.417 47.7237 529.762 44.6957C530.309 45.3998 530.769 45.9696 531.201 46.5556C532.889 48.8388 535.253 50.0883 537.891 50.9104C542.257 52.2657 546.729 52.4 551.233 51.9564C552.668 51.8139 554.091 51.4965 555.505 51.1831C557.079 50.8371 558.518 50.1656 559.794 49.1726C562.863 46.7795 562.859 42.1317 559.712 40.0519C558.881 39.5025 557.841 39.1444 556.851 38.9897C554.556 38.6316 552.232 38.5217 550.336 40.2392C549.725 40.7927 549.256 41.5049 548.759 42.1724C548.514 42.4979 548.355 42.8887 548.029 43.4869C547.634 42.7625 547.336 42.2171 547.034 41.6758C545.979 39.7711 544.483 38.4606 542.232 38.2246C541.209 38.1187 540.178 38.1065 539.151 38.0251C537.088 37.8583 535.058 37.5286 533.138 36.7146C529.946 35.3634 527.745 33.1535 526.807 29.7226C526.008 26.8004 526.028 23.8904 526.795 21.0212C527.846 17.0896 530.525 14.432 534.022 12.4988C537.455 10.6022 541.193 9.86153 545.037 9.45047C550.145 8.9051 555.118 9.49931 559.969 11.1395C563.124 12.2058 566.125 13.614 569.141 15.2745C567.894 17.9769 566.655 20.6589 565.358 23.4631C564.861 22.9421 564.486 22.5352 564.099 22.1404C561.604 19.617 558.457 18.3635 555.073 17.6065C550.671 16.6216 546.256 16.6175 541.849 17.5658C540.1 17.9403 538.433 18.5752 537.014 19.7147C535.388 21.0212 534.459 22.6776 534.556 24.8061C534.626 26.3161 535.249 27.4923 536.668 28.176C538.625 29.1202 540.708 29.3481 542.828 29.1528C544.788 28.9737 546.17 27.8097 547.185 26.1818C547.426 25.7951 547.65 25.4004 547.939 24.912C548.18 25.1643 548.396 25.2986 548.473 25.4899C549.766 28.64 552.342 29.5883 555.481 29.5842C557.511 29.5801 559.5 29.865 561.424 30.4877C565.856 31.9162 568.994 34.7123 570.311 39.2583C571.106 41.9973 571.151 44.8218 570.442 47.5731C569.471 51.3337 567.079 54.0808 563.748 56.0181C559.692 58.3786 555.244 59.3798 550.614 59.6281C548.473 59.7421 546.317 59.7665 544.181 59.6118C542.628 59.4938 537.141 59.0949 533.998 57.8984Z" fill="#384C69"/>
<path d="M104.68 42.7825C104.068 45.029 103.469 47.2756 102.841 49.5181C102.438 50.9589 101.973 52.3793 101.59 53.8241C101.394 54.5607 100.999 55.0328 100.318 55.3788C97.0772 57.0189 93.6734 58.1422 90.0738 58.6428C82.3489 59.7173 74.8319 59.0742 67.7551 55.5741C62.3049 52.8758 58.2936 48.7774 56.1983 42.986C55.8192 41.9359 55.5542 40.8411 55.273 39.7585C54.6982 37.5486 53.7076 35.6561 51.4941 34.6549C51.4248 34.6223 51.3922 34.5084 51.2821 34.3415C51.5145 34.1624 51.7346 33.9345 51.9996 33.7962C53.353 33.0961 54.262 31.9973 54.8286 30.6176C55.1303 29.885 55.3627 29.1239 55.5869 28.3629C56.8628 24.0651 59.0315 20.2882 62.2927 17.2032C65.7658 13.9188 69.9034 11.8025 74.5629 10.7443C82.0636 9.03903 89.5276 9.20183 96.9019 11.4443C98.5081 11.9327 100.082 12.5636 101.618 13.2473C102.85 13.7927 104.003 14.5171 105.222 15.1805C104.272 18.4893 103.335 21.7493 102.336 25.225C101.887 24.8383 101.565 24.6104 101.3 24.3255C97.3789 20.1132 92.426 18.123 86.7923 17.4678C83.4863 17.0811 80.2495 17.2439 77.0577 18.1108C72.1944 19.4335 68.281 22.1156 65.8188 26.564C63.5156 30.7234 63.0346 35.1596 64.6326 39.6893C66.9317 46.2174 71.7012 49.9292 78.4437 50.9263C84.1181 51.7647 89.7436 51.2682 95.145 49.1233C98.2757 47.882 101.068 46.132 103.424 43.7145C103.779 43.3482 104.097 42.9493 104.431 42.5668C104.517 42.6359 104.598 42.7092 104.68 42.7825Z" fill="#384C69"/>
<path d="M517.402 15.2174C516.428 18.5425 515.478 21.7902 514.52 25.0583C513.118 23.8659 511.859 22.6897 510.497 21.6559C507.839 19.6413 504.786 18.457 501.529 17.8546C499.743 17.525 497.917 17.3378 496.099 17.2726C491.945 17.1302 487.983 17.9686 484.395 20.1175C479.186 23.2472 476.185 27.773 475.99 33.951C475.79 40.1861 478.505 44.9438 483.592 48.3828C486.279 50.198 489.316 51.13 492.581 51.1951C495.809 51.2603 499.034 51.3254 502.226 50.6498C507.676 49.498 512.503 47.227 516.273 43.0106C516.392 42.8763 516.542 42.7664 516.934 42.4123C516.746 43.1897 516.652 43.6618 516.518 44.1298C515.637 47.227 514.724 50.312 513.884 53.4214C513.603 54.4592 513.041 55.1022 512.087 55.5662C507.994 57.5604 503.669 58.6145 499.14 58.9646C495.19 59.2657 491.272 59.0052 487.416 58.1587C480.559 56.6569 474.71 53.5028 470.654 47.5607C469.186 45.4118 468.31 43.0106 467.649 40.5117C466.638 36.7023 466.471 36.4947 463.528 34.3947C463.565 34.3173 463.581 34.1912 463.642 34.1627C465.713 33.2225 466.85 31.5661 467.47 29.4294C468.187 26.963 469.06 24.5537 470.417 22.3397C474.359 15.9092 480.144 12.112 487.449 10.5655C493.955 9.18986 500.469 9.26719 506.946 10.8178C510.619 11.7091 514.043 13.1783 517.402 15.2174Z" fill="#384C69"/>
<path d="M0 9.8291C1.62651 10.0122 2.91876 10.1791 4.21508 10.2971C5.33203 10.3989 6.45306 10.5047 7.57002 10.5047C17.5003 10.5251 27.4347 10.5535 37.365 10.4925C39.554 10.4803 41.7472 10.1791 43.9281 9.90643C44.7923 9.79654 45.2285 10.0611 45.5546 10.8181C46.9447 14.0333 48.3674 17.2322 49.7738 20.4393C49.8064 20.5166 49.786 20.6143 49.7982 20.8585C49.468 20.716 49.1949 20.6102 48.9299 20.48C45.7258 18.9131 42.3668 18.0462 38.7714 18.1113C36.4763 18.1561 34.1813 18.1195 31.8862 18.1195C31.4296 18.1195 30.9731 18.1195 30.3901 18.1195C30.3331 18.7666 30.2556 19.2631 30.2556 19.7596C30.2434 22.283 30.2515 24.8063 30.2474 27.3296C30.2434 30.4756 31.5112 32.9176 34.2465 34.5618C34.4421 34.6798 34.6174 34.8223 34.9395 35.0543C34.54 35.3514 34.2342 35.5956 33.9081 35.8194C31.503 37.4718 30.2311 39.6939 30.2393 42.6649C30.2515 46.8691 30.3371 51.0693 30.9812 55.2328C31.8332 60.719 32.8319 63.1365 36.0524 67.6256C35.9953 67.6947 35.9382 67.825 35.8852 67.825C32.6526 67.7843 29.5585 67.2796 26.864 65.2976C24.6627 63.6778 23.3337 61.48 22.4573 58.9567C21.6542 56.6409 21.373 54.2275 21.2384 51.8059C21.0713 48.7291 20.9449 45.6482 20.9612 42.5673C20.9775 39.6899 19.7994 37.5369 17.4881 35.9252C17.1823 35.7136 16.8725 35.5019 16.5709 35.2862C16.5383 35.2618 16.5342 35.2048 16.4567 35.0258C16.7054 34.8426 16.9704 34.6228 17.2598 34.4438C19.6486 32.9379 20.9939 30.8704 20.949 27.9645C20.9042 25.2092 20.9449 22.4498 20.9368 19.6945C20.9368 19.2427 20.8797 18.7869 20.8389 18.2253C20.2805 18.1886 19.8321 18.1317 19.3796 18.1276C17.0356 18.1195 14.6957 18.1195 12.3517 18.1317C10.0485 18.1398 7.98582 18.6892 6.61612 20.7486C6.57943 20.8056 6.45306 20.8097 6.18809 20.8951C4.18654 17.3177 2.17276 13.7158 0 9.8291Z" fill="#384C69"/>
<path d="M304.692 35.0214C304.178 35.3999 303.803 35.6644 303.436 35.9452C301.031 37.7767 299.845 40.1331 300.073 43.214C300.208 45.0251 300.053 46.8607 300.135 48.6758C300.342 53.3074 300.844 57.8941 302.585 62.2489C303.363 64.1984 304.37 66.0298 305.98 67.7677C301.329 67.6944 297.305 66.8397 294.44 63.0832C292.556 60.6169 291.835 57.7313 291.374 54.7603C290.787 50.9672 290.693 47.1333 290.82 43.3077C290.934 39.889 289.609 37.3534 286.743 35.5504C286.592 35.4568 286.466 35.3185 286.217 35.0987C286.552 34.8423 286.809 34.6103 287.098 34.4272C289.495 32.9172 290.791 30.7846 290.795 27.9235C290.799 25.1682 290.799 22.4129 290.791 19.6535C290.787 18.1313 290.775 18.1232 289.193 18.1191C287.131 18.1151 285.072 18.1558 283.009 18.1069C280.327 18.0459 277.869 18.4651 276.116 21.0983C274.033 17.3377 272.052 13.7684 269.92 9.91831C270.776 9.97529 271.351 10.0119 271.925 10.0526C274.114 10.2032 276.303 10.4759 278.497 10.4881C287.628 10.541 296.763 10.541 305.899 10.4922C308.137 10.48 310.371 10.2073 312.609 10.0445C313.306 9.99564 314.003 9.91831 314.883 9.83691C316.424 13.3411 317.973 16.8656 319.645 20.6709C319.037 20.4756 318.699 20.4064 318.393 20.264C315.25 18.7907 311.964 18.0133 308.475 18.0988C306.18 18.1558 303.885 18.1029 301.59 18.111C301.133 18.111 300.681 18.1598 300.106 18.1965C300.077 18.7988 300.029 19.2953 300.033 19.7919C300.053 22.5472 300.106 25.3025 300.106 28.0537C300.106 30.6055 301.39 32.4695 303.241 34.0365C303.628 34.3743 304.085 34.6184 304.692 35.0214Z" fill="#384C69"/>
<path d="M116.445 10C120.713 10 124.867 10 129.061 10C129.033 10.1954 129.061 10.3582 128.992 10.4477C127.504 12.3402 127.003 14.5664 126.95 16.8781C126.868 20.5207 126.889 24.1632 126.921 27.8058C126.946 30.3861 128.242 32.3152 130.248 33.8333C130.504 34.0286 130.773 34.1995 131.165 34.4722C130.826 34.753 130.57 34.981 130.296 35.1845C128.107 36.8165 126.799 38.8636 126.893 41.7166C126.982 44.3743 126.913 47.04 126.913 49.7017C126.913 50.1169 126.913 50.5279 126.913 51.0692C127.423 51.1181 127.822 51.1913 128.222 51.1913C134.357 51.1954 140.488 51.2686 146.619 51.1547C149.802 51.0977 152.933 50.4384 155.982 49.486C156.545 49.311 157.103 49.132 157.894 48.8796C157.201 50.2878 156.655 51.4559 156.06 52.5995C155.11 54.4187 154.079 56.2013 153.178 58.0409C152.79 58.8305 152.309 59.091 151.449 59.091C145.127 59.0665 138.804 59.0869 132.481 59.091C127.61 59.095 122.743 59.091 117.871 59.091C117.419 59.091 116.962 59.091 116.359 59.091C117.822 56.531 118.071 53.8734 118.242 51.232C118.434 48.3017 118.475 45.3592 118.515 42.4207C118.556 39.2788 117.451 36.674 114.704 34.9199C114.626 34.8711 114.569 34.7937 114.512 34.7205C114.484 34.6879 114.476 34.635 114.419 34.4926C114.578 34.3461 114.749 34.1466 114.957 34.0083C117.191 32.535 118.393 30.4064 118.483 27.8017C118.609 24.208 118.597 20.6061 118.471 17.0165C118.414 15.4536 118.002 13.8867 117.61 12.3605C117.407 11.5913 116.893 10.8872 116.445 10Z" fill="#384C69"/>
<path d="M209.963 48.7207C209.755 49.1969 209.633 49.5347 209.466 49.8481C208.071 52.4935 206.62 55.1064 205.299 57.7843C204.786 58.8303 204.138 59.1274 203.013 59.1193C192.238 59.0745 181.464 59.0867 170.69 59.0867C169.993 59.0867 169.296 59.0867 168.428 59.0867C168.693 58.3989 168.97 57.878 169.1 57.3204C169.479 55.6884 169.989 54.0523 170.099 52.3958C170.34 48.8143 170.47 45.2165 170.446 41.6269C170.429 38.8512 169.153 36.6087 166.809 35.0296C166.626 34.9075 166.475 34.7447 166.226 34.529C166.565 34.2848 166.826 34.1139 167.07 33.9185C169.153 32.2621 170.437 30.1865 170.437 27.4515C170.437 24.6026 170.437 21.7537 170.437 18.9007C170.437 15.836 170.164 12.8365 168.224 9.99169C172.606 9.87773 176.776 9.95913 181.179 9.93064C179.911 11.6359 179.287 13.3778 179.027 15.2337C178.859 16.4302 178.749 17.6471 178.729 18.8559C178.688 21.3304 178.745 23.809 178.721 26.2834C178.692 29.519 179.65 32.254 182.504 34.0935C182.651 34.1872 182.744 34.354 182.936 34.5657C182.52 34.875 182.153 35.1436 181.79 35.4244C179.956 36.8489 178.827 38.7251 178.737 41.0327C178.615 44.1584 178.705 47.2922 178.709 50.4219C178.709 50.601 178.786 50.776 178.855 51.0772C179.255 51.1179 179.654 51.1952 180.054 51.1952C186.001 51.1993 191.953 51.301 197.901 51.1545C201.696 51.0609 205.434 50.3365 209.029 49.0422C209.286 48.9568 209.539 48.8713 209.963 48.7207Z" fill="#384C69"/>
<path d="M369.512 131.62C369.924 131.266 370.336 130.912 370.743 130.554C371.481 129.911 371.873 129.174 371.86 128.12C371.803 123.216 371.836 118.312 371.824 113.403C371.824 112.927 371.726 112.447 371.673 111.942C370.756 111.975 370.597 112.549 370.385 113.045C369.667 114.718 368.954 116.395 368.253 118.072C366.92 121.258 365.631 124.461 364.237 127.624C363.687 128.873 363.561 130.013 364.278 131.205C364.388 131.388 364.4 131.628 364.506 132.035C361.755 132.121 359.134 132.218 356.488 132.019C356.488 131.702 356.435 131.535 356.496 131.445C357.45 130.037 357.14 128.698 356.5 127.233C354.446 122.528 352.501 117.774 350.504 113.041C350.345 112.663 350.141 112.304 349.982 111.995C349.395 111.877 349.162 112.146 349.089 112.553C349.032 112.87 349.044 113.204 349.044 113.53C349.044 118.247 349.089 122.968 349.016 127.685C348.995 128.983 349.358 129.935 350.398 130.688C350.801 130.981 351.14 131.364 351.535 131.73C350.565 132.21 344.112 132.279 341.572 131.877C341.645 131.25 342.167 130.969 342.567 130.656C343.533 129.899 343.9 128.967 343.896 127.737C343.859 120.078 343.843 112.414 343.896 104.755C343.904 103.261 343.496 102.122 342.273 101.263C341.951 101.035 341.686 100.718 341.246 100.302C341.715 100.188 341.968 100.074 342.22 100.07C344.377 100.058 346.529 100.074 348.686 100.058C349.843 100.05 350.557 100.494 351.025 101.633C353.875 108.536 356.79 115.414 359.692 122.296C359.863 122.703 360.096 123.086 360.462 123.798C360.846 123.073 361.107 122.662 361.294 122.223C363.393 117.233 365.485 112.235 367.576 107.242C368.334 105.435 369.141 103.644 369.83 101.808C370.291 100.583 371.061 100.034 372.366 100.062C374.38 100.103 376.393 100.066 378.407 100.074C378.758 100.074 379.108 100.16 379.793 100.25C379.235 100.75 378.925 101.059 378.578 101.332C377.518 102.162 377.041 103.168 377.054 104.584C377.115 112.386 377.103 120.188 377.066 127.99C377.062 129.072 377.335 129.89 378.232 130.517C378.717 130.859 379.141 131.29 379.83 131.885C377.816 132.3 376.157 132.068 374.514 132.084C372.879 132.1 371.216 132.284 369.598 131.978C369.573 131.856 369.541 131.738 369.512 131.62Z" fill="#384C69"/>
<path d="M170.56 111.234C170.474 111.604 170.315 111.971 170.311 112.341C170.291 117.665 170.295 122.992 170.278 128.315C170.274 129.138 170.654 129.74 171.22 130.265C171.75 130.757 172.284 131.246 172.761 131.872C169.398 132.186 166.092 132.113 162.782 132.113C162.733 131.991 162.68 131.864 162.631 131.742C163.059 131.356 163.471 130.953 163.919 130.59C164.783 129.895 165.146 129.032 165.142 127.908C165.114 120.062 165.11 112.215 165.142 104.364C165.146 103.184 164.771 102.28 163.874 101.556C163.45 101.214 163.043 100.848 162.399 100.29C163.039 100.18 163.381 100.074 163.719 100.07C165.595 100.054 167.466 100.079 169.341 100.054C170.327 100.042 171.033 100.441 171.546 101.275C174.49 106.045 177.441 110.811 180.396 115.577C181.627 117.563 182.867 119.541 184.118 121.511C184.302 121.8 184.583 122.023 184.986 122.459C185.137 121.926 185.284 121.645 185.284 121.36C185.28 119.683 185.227 118.002 185.223 116.326C185.211 112.451 185.154 108.572 185.243 104.698C185.276 103.249 184.893 102.158 183.723 101.316C183.393 101.08 183.123 100.762 182.622 100.282C183.931 99.9117 185.035 100.099 186.112 100.07C187.237 100.038 188.358 100.066 189.483 100.066C190.587 100.066 191.696 100.066 192.801 100.066C192.854 100.176 192.903 100.29 192.956 100.4C192.613 100.726 192.3 101.092 191.92 101.365C190.844 102.138 190.42 103.119 190.429 104.474C190.473 113.163 190.445 121.852 190.437 130.542C190.437 131.897 190.278 132.08 188.928 132.109C187.901 132.133 186.87 132.092 185.842 132.068C184.864 132.048 184.359 131.347 183.894 130.643C182.324 128.263 180.775 125.873 179.218 123.484C176.817 119.809 174.42 116.13 172.011 112.459C171.713 112.003 171.338 111.6 170.996 111.173C170.853 111.197 170.707 111.218 170.56 111.234Z" fill="#384C69"/>
<path d="M404.24 113.932C404.884 114.303 405.308 114.547 405.732 114.787C406.661 115.316 407.615 115.813 408.516 116.387C409.189 116.818 409.445 117.49 409.437 118.316C409.409 121.865 409.397 125.418 409.429 128.967C409.445 130.591 408.72 131.478 407.089 131.795C405.732 132.06 404.309 132.064 402.911 132.08C399.218 132.121 395.528 132.105 391.835 132.113C390.062 132.117 388.288 132.129 386.511 132.117C386.01 132.113 385.504 132.031 384.62 131.95C385.223 131.421 385.565 131.095 385.932 130.802C386.907 130.033 387.367 129.129 387.355 127.803C387.29 120.05 387.29 112.292 387.355 104.535C387.367 103.115 386.87 102.118 385.806 101.295C385.48 101.043 385.178 100.758 384.701 100.351C385.15 100.221 385.427 100.075 385.704 100.075C391.513 100.066 397.322 100.07 403.131 100.075C403.176 100.075 403.225 100.075 403.27 100.079C406.726 100.311 408.174 101.312 407.974 104.999C407.888 106.582 407.896 108.178 407.978 109.761C408.035 110.88 407.57 111.653 406.726 112.26C406.021 112.781 405.275 113.249 404.24 113.932ZM398.109 128.967C398.109 128.963 398.109 128.954 398.109 128.95C399.417 128.95 400.73 128.991 402.034 128.938C403.408 128.885 403.861 128.397 403.873 127.021C403.893 124.783 403.844 122.544 403.893 120.306C403.91 119.496 403.583 118.971 402.939 118.584C401.981 118.006 401.011 117.441 400.049 116.867C399.434 116.505 398.81 116.48 398.178 116.814C396.731 117.579 395.284 118.332 393.853 119.126C393.25 119.463 392.875 120.017 392.87 120.725C392.854 123.057 392.838 125.389 392.883 127.721C392.903 128.71 393.184 128.938 394.175 128.963C395.488 128.987 396.796 128.967 398.109 128.967ZM392.866 109.142H392.87C392.87 110.632 392.846 112.125 392.879 113.615C392.903 114.795 393.335 115.129 394.35 114.612C396.719 113.403 399.042 112.109 401.374 110.831C402.096 110.436 402.397 109.793 402.381 108.971C402.361 107.807 402.381 106.639 402.377 105.475C402.369 103.611 402.055 103.229 400.22 103.172C398.353 103.115 396.482 103.127 394.615 103.168C393.217 103.196 392.895 103.554 392.875 104.946C392.85 106.346 392.866 107.742 392.866 109.142Z" fill="#384C69"/>
<path d="M143.508 132.027C140.178 132.027 136.843 132.027 133.439 132.027C133.509 131.783 133.5 131.6 133.582 131.543C134.935 130.619 134.662 130 133.839 128.873C131.743 126.008 129.66 123.13 127.565 120.265C127.272 119.866 126.925 119.504 126.526 119.028C125.258 120.147 124.337 121.38 123.427 122.601C123.207 122.894 123.248 123.407 123.24 123.822C123.215 125.177 123.301 126.537 123.203 127.884C123.122 129.036 123.558 129.862 124.385 130.578C124.793 130.932 125.16 131.327 125.596 131.758C124.402 132.206 116.828 132.259 115.111 131.84C115.686 131.307 116.159 130.818 116.685 130.399C117.402 129.829 117.684 129.125 117.684 128.209C117.663 120.131 117.659 112.052 117.688 103.973C117.692 102.988 117.321 102.268 116.603 101.666C116.143 101.279 115.678 100.901 114.989 100.331C116.334 99.8749 117.48 100.111 118.589 100.074C119.759 100.034 120.929 100.066 122.099 100.066C123.248 100.066 124.398 100.066 125.674 100.066C125.494 100.913 124.944 101.149 124.54 101.474C123.595 102.227 123.179 103.135 123.211 104.384C123.289 107.278 123.224 110.176 123.244 113.07C123.248 113.542 123.374 114.014 123.493 114.791C123.986 114.307 124.263 114.087 124.479 113.814C127.084 110.514 129.681 107.205 132.277 103.896C132.306 103.859 132.335 103.819 132.359 103.782C133.9 101.519 133.651 102.109 132.261 100.363C133.019 99.822 133.871 100.131 134.654 100.082C135.539 100.03 136.431 100.07 137.324 100.07C138.168 100.07 139.012 100.062 139.852 100.074C140.667 100.087 141.482 100.115 142.644 100.144C142.143 100.595 141.955 100.86 141.698 100.982C140.52 101.548 139.656 102.459 138.869 103.452C136.232 106.786 133.602 110.127 130.981 113.472C130.109 114.588 130.08 114.628 130.887 115.768C133.411 119.357 135.991 122.91 138.51 126.504C139.933 128.535 141.339 130.566 143.696 131.701C143.63 131.811 143.569 131.917 143.508 132.027Z" fill="#384C69"/>
<path d="M316.596 100.396C317.664 99.981 327.586 99.924 328.964 100.335C328.772 100.657 328.642 100.998 328.409 101.251C327.451 102.301 327.39 103.428 327.843 104.743C328.845 107.653 329.73 110.603 330.7 113.526C332.176 117.95 333.709 122.357 335.172 126.785C335.726 128.462 336.489 129.968 337.932 131.063C338.176 131.25 338.352 131.531 338.759 131.999C335.131 132.267 331.768 131.991 328.401 132.064C328.36 131.958 328.319 131.852 328.279 131.746C328.727 131.311 329.139 130.823 329.636 130.452C330.37 129.911 330.427 129.292 330.133 128.495C329.551 126.92 329.037 125.324 328.454 123.749C328.112 122.821 327.81 122.667 326.836 123C325.69 123.395 324.573 123.875 323.444 124.327C321.275 125.194 319.103 126.061 316.938 126.94C315.36 127.583 315.055 128.588 316.029 129.996C316.449 130.607 316.934 131.169 317.399 131.763C316.253 132.219 308.691 132.223 307.032 131.714C307.595 131.181 308.137 130.753 308.569 130.237C309.034 129.679 309.555 129.085 309.78 128.417C312.413 120.644 314.993 112.854 317.586 105.064C317.688 104.755 317.737 104.425 317.871 104.128C318.283 103.204 318.047 102.407 317.468 101.646C317.158 101.251 316.889 100.828 316.596 100.396ZM317.611 122.06C317.696 122.15 317.778 122.235 317.863 122.325C318.242 122.199 318.634 122.097 319.005 121.946C321.169 121.075 323.326 120.196 325.486 119.321C326.713 118.825 326.799 118.702 326.436 117.461C325.519 114.287 324.577 111.12 323.623 107.958C323.473 107.453 323.468 106.7 322.751 106.684C322.013 106.668 322.013 107.425 321.858 107.925C320.86 111.169 319.889 114.425 318.911 117.677C318.475 119.138 318.043 120.599 317.611 122.06Z" fill="#384C69"/>
<path d="M297.501 110.025C297.501 108.397 297.501 106.912 297.501 105.426C297.497 103.497 297.224 103.188 295.357 103.159C293.531 103.131 291.704 103.127 289.878 103.164C288.297 103.192 288.003 103.505 287.999 105.084C287.987 108.865 287.995 112.65 287.987 116.431C287.979 119.838 287.958 123.244 287.95 126.655C287.95 127.074 287.946 127.497 288.003 127.912C288.093 128.539 288.46 128.942 289.128 128.946C291.517 128.958 293.902 128.967 296.291 128.946C296.922 128.942 297.412 128.576 297.448 127.937C297.562 126.04 297.636 124.136 297.408 122.296C296.331 121.702 295.524 122.642 294.542 122.532C294.024 121.897 294.293 121.124 294.285 120.416C294.252 118.21 294.33 118.128 296.409 117.465C298.011 116.952 299.613 116.427 301.227 115.947C301.737 115.796 302.287 115.768 303.049 115.646C303.049 116.899 303.053 117.953 303.049 119.008C303.041 121.991 302.878 124.982 303.07 127.953C303.208 130.106 302.279 131.388 299.98 131.86C298.671 132.129 297.285 132.052 295.932 132.08C294.159 132.117 292.385 132.125 290.612 132.096C288.888 132.072 287.159 132.019 285.435 131.909C284.893 131.872 284.33 131.681 283.833 131.445C282.924 131.014 282.435 130.326 282.439 129.235C282.463 120.501 282.443 111.771 282.451 103.037C282.451 101.568 283.234 100.648 284.77 100.335C285.545 100.176 286.348 100.091 287.139 100.083C290.791 100.058 294.444 100.038 298.096 100.095C299.063 100.111 300.069 100.266 300.97 100.595C302.34 101.096 303.192 102.085 303.102 103.689C303.045 104.714 303.147 105.748 303.066 106.769C303.029 107.233 302.841 107.897 302.503 108.088C301.166 108.841 299.747 109.46 298.349 110.095C298.158 110.168 297.893 110.058 297.501 110.025Z" fill="#384C69"/>
<path d="M214.785 110.029C214.757 109.508 214.704 109.012 214.7 108.519C214.688 107.258 214.72 105.996 214.696 104.738C214.675 103.684 214.402 103.265 213.436 103.237C211.1 103.167 208.756 103.175 206.421 103.253C205.471 103.285 205.291 103.599 205.279 104.661C205.255 106.574 205.271 108.491 205.271 110.404C205.271 115.914 205.271 121.425 205.271 126.935C205.271 127.216 205.279 127.497 205.271 127.778C205.255 128.523 205.622 128.942 206.355 128.946C208.744 128.966 211.133 128.987 213.518 128.938C214.333 128.922 214.675 128.494 214.692 127.664C214.72 126.126 214.724 124.583 214.688 123.041C214.667 122.117 214.357 121.938 213.412 122.17C212.914 122.292 212.421 122.43 211.924 122.556C211.887 122.564 211.834 122.532 211.622 122.463C211.386 121.311 211.459 120.057 211.594 118.84C211.634 118.474 212.225 118.059 212.653 117.868C213.546 117.469 214.496 117.196 215.43 116.891C216.408 116.569 217.386 116.244 218.373 115.963C218.89 115.817 219.437 115.764 220.052 115.654C220.122 116.118 220.203 116.431 220.207 116.74C220.219 120.709 220.187 124.681 220.232 128.649C220.248 129.996 219.698 130.944 218.491 131.396C217.545 131.754 216.514 132.059 215.515 132.076C212.384 132.133 209.254 132.039 206.123 132.007C205.141 131.998 204.158 132.027 203.18 131.974C202.625 131.946 202.055 131.86 201.537 131.673C200.322 131.237 199.637 130.403 199.662 129.031C199.698 127.119 199.666 125.202 199.662 123.289C199.662 116.753 199.723 110.212 199.625 103.676C199.588 101.32 200.803 100.424 202.605 100.233C203.115 100.18 203.628 100.082 204.138 100.078C207.884 100.066 211.63 100.054 215.377 100.082C216.742 100.095 218.083 100.27 219.213 101.181C219.869 101.71 220.26 102.325 220.228 103.212C220.183 104.47 220.211 105.735 220.219 106.993C220.223 107.486 220.17 107.954 219.673 108.186C218.275 108.833 216.873 109.468 215.462 110.082C215.324 110.151 215.116 110.062 214.785 110.029Z" fill="#384C69"/>
<path d="M239.122 120.693C240.903 121.083 242.318 121.901 243.749 122.679C244.319 122.992 244.385 123.558 244.385 124.136C244.381 125.255 244.364 126.378 244.393 127.498C244.417 128.613 244.694 128.918 245.82 128.942C247.597 128.983 249.378 128.979 251.16 128.951C252.358 128.934 252.648 128.633 252.668 127.441C252.692 125.711 252.644 123.981 252.692 122.256C252.729 121.031 252.207 120.245 251.135 119.683C248.147 118.129 245.184 116.533 242.212 114.946C241.551 114.592 240.903 114.218 240.259 113.839C239.338 113.294 238.853 112.472 238.849 111.413C238.832 108.564 238.812 105.716 238.857 102.867C238.877 101.487 239.697 100.628 241.201 100.315C241.931 100.164 242.685 100.079 243.427 100.075C246.753 100.05 250.079 100.034 253.402 100.087C254.319 100.103 255.265 100.282 256.145 100.559C257.327 100.929 258.326 101.939 258.236 103.514C258.143 105.235 258.216 106.969 258.204 108.699C258.2 109.11 258.151 109.517 258.114 110.013C257.727 110.013 257.38 110.107 257.124 109.997C255.921 109.48 254.747 108.906 253.561 108.349C252.888 108.031 252.631 107.494 252.668 106.757C252.709 106.013 252.705 105.26 252.664 104.515C252.619 103.64 252.362 103.261 251.502 103.233C249.492 103.168 247.483 103.196 245.469 103.241C244.756 103.257 244.389 103.717 244.393 104.45C244.401 106.224 244.393 107.999 244.409 109.773C244.413 110.612 244.906 111.169 245.591 111.552C247.1 112.398 248.616 113.229 250.141 114.043C252.081 115.076 254.021 116.114 255.99 117.095C257.527 117.864 258.302 118.967 258.236 120.758C258.135 123.509 258.208 126.268 258.196 129.024C258.188 130.603 257.751 131.217 256.243 131.669C255.575 131.869 254.869 132.04 254.18 132.048C250.63 132.092 247.079 132.109 243.529 132.08C242.306 132.072 241.115 131.804 240.068 131.091C239.318 130.583 238.853 129.903 238.845 129.003C238.816 126.529 238.824 124.05 238.841 121.576C238.841 121.332 238.996 121.079 239.122 120.693Z" fill="#384C69"/>
<path d="M371.762 19.1084C373.258 19.5317 374.477 19.8125 375.655 20.2276C376.577 20.5532 377.441 20.6712 378.378 20.3131C378.843 20.1381 379.373 20.1299 379.956 20.0323C381.24 22.4376 382.345 24.8347 383.013 27.4191C383.201 28.1395 383.433 28.868 383.494 29.6046C383.662 31.6192 384.811 32.9257 386.446 33.9269C386.678 34.0693 386.89 34.2362 387.228 34.4722C386.935 34.7368 386.743 34.9932 386.487 35.1275C384.77 36.031 383.914 37.545 383.556 39.3479C382.969 42.2986 381.97 45.0946 380.633 47.7848C379.976 49.1075 379.887 49.1808 378.48 48.7494C377.543 48.4604 376.699 48.4686 375.761 48.8104C374.559 49.25 373.287 49.5023 371.836 49.893C374.127 39.5677 374.2 29.5029 371.762 19.1084Z" fill="#384C69"/>
<path d="M370.34 10.5937C370.34 10.903 370.397 11.1146 370.332 11.2693C369.643 12.8972 370.034 14.4519 370.588 16.0148C370.862 16.7881 371.016 17.602 371.29 18.6399C360.968 16.3282 350.862 16.3119 340.557 18.5951C340.904 17.2602 341.12 16.1247 341.495 15.0421C341.882 13.9351 341.89 12.881 341.584 11.7617C341.27 10.61 341.319 10.6018 342.391 10.0402C345.314 8.50991 348.384 7.41104 351.649 6.88195C352.929 6.67439 353.887 5.99065 354.637 4.9691C355.016 4.4563 355.404 3.94756 355.872 3.3208C356.227 3.73593 356.508 3.98012 356.684 4.28943C357.597 5.87669 359.044 6.59706 360.768 6.95928C363.944 7.62674 366.997 8.65235 369.838 10.2477C370.005 10.3373 370.148 10.4553 370.34 10.5937Z" fill="#384C69"/>
<path d="M339.966 49.8727C338.47 49.4616 337.202 49.1726 335.983 48.7534C335.094 48.4482 334.287 48.4401 333.394 48.725C332.013 49.1686 331.829 49.0831 331.222 47.7807C330.056 45.2859 328.927 42.7666 328.486 40.0235C328.124 37.7688 327.153 35.9699 325.054 34.8873C324.903 34.81 324.797 34.6513 324.614 34.4804C324.858 34.3094 325.034 34.167 325.229 34.0571C326.999 33.0681 328.16 31.7128 328.401 29.5884C328.743 26.5848 329.995 23.8539 331.267 21.1515C331.809 19.9956 332.013 19.8898 333.24 20.2887C334.279 20.6265 335.225 20.5858 336.24 20.2195C337.402 19.8043 338.612 19.5276 340.007 19.1328C338.78 24.3504 338.127 29.3726 338.131 34.4559C338.127 39.5555 338.625 44.6062 339.966 49.8727Z" fill="#384C69"/>
<path d="M341.486 58.4399C341.486 58.1957 341.425 57.9881 341.495 57.8334C342.216 56.2218 341.837 54.6752 341.287 53.1124C341.026 52.3717 340.895 51.5862 340.643 50.5728C350.842 52.7827 360.899 52.7705 371.078 50.5117C371.025 50.996 371.02 51.2972 370.955 51.5902C370.866 52.0013 370.743 52.4042 370.609 52.8031C370.05 54.4514 369.598 56.0956 370.299 57.8253C370.364 57.984 370.307 58.1875 370.307 58.5213C369.447 58.9608 368.579 59.5306 367.629 59.8725C365.432 60.6579 363.222 61.4679 360.96 62.0092C358.983 62.4853 357.356 63.2545 356.378 65.1063C356.276 65.2976 356.096 65.4482 355.88 65.7005C355.44 65.1023 355.057 64.5813 354.678 64.0604C353.838 62.9127 352.75 62.3103 351.298 62.0539C347.833 61.4434 344.556 60.2225 341.486 58.4399Z" fill="#384C69"/>
<path d="M448.042 132.023C444.63 132.023 441.218 132.023 437.81 132.023C437.765 131.942 437.72 131.86 437.671 131.775C438.026 131.454 438.36 131.099 438.743 130.815C439.746 130.062 440.198 129.142 440.19 127.827C440.137 120.408 440.166 112.984 440.166 105.561C440.166 105.28 440.166 104.999 440.162 104.723C440.154 104.047 439.799 103.656 439.139 103.628C437.064 103.542 435.005 103.51 433.383 105.178C432.991 105.581 432.437 105.817 431.736 106.277C431.736 104.084 431.736 102.199 431.736 100.132C439.216 100.718 446.66 100.771 454.071 100.124C454.438 101.243 454.458 104.771 454.067 106.151C453.537 105.825 452.958 105.618 452.587 105.219C451.03 103.542 449.02 103.546 446.99 103.62C446.126 103.652 445.828 103.986 445.738 104.82C445.71 105.097 445.726 105.378 445.726 105.659C445.722 112.895 445.759 120.127 445.693 127.363C445.681 128.853 446.048 130.009 447.279 130.863C447.622 131.099 447.968 131.34 448.311 131.58C448.217 131.726 448.131 131.873 448.042 132.023Z" fill="#384C69"/>
<path d="M363.707 34.3662C363.736 36.4663 363.503 38.3506 362.949 40.2024C362.745 40.8902 362.378 41.2891 361.661 41.5048C357.825 42.6566 354.013 42.5914 350.186 41.4641C349.468 41.2525 349.118 40.8455 348.902 40.1577C347.732 36.3849 347.821 32.6284 348.918 28.8597C349.122 28.1556 349.497 27.7852 350.21 27.5695C354.087 26.4055 357.939 26.377 361.812 27.6102C362.525 27.8381 362.753 28.298 362.937 28.8841C363.512 30.7237 363.764 32.6121 363.707 34.3662Z" fill="#384C69"/>
<path d="M426.391 131.783C425.34 132.19 417.235 132.243 415.813 131.856C416.184 131.474 416.441 131.099 416.791 130.863C418.051 130.017 418.409 128.857 418.397 127.375C418.348 119.675 418.365 111.971 418.389 104.271C418.393 103.147 418.006 102.289 417.146 101.597C416.718 101.251 416.318 100.872 415.678 100.311C417.056 99.8914 418.206 100.115 419.319 100.079C420.489 100.038 421.658 100.03 422.828 100.079C423.966 100.127 425.136 99.8507 426.485 100.351C425.898 100.876 425.466 101.279 425.009 101.658C424.166 102.362 423.807 103.212 423.815 104.348C423.856 112.097 423.86 119.846 423.807 127.595C423.799 128.934 424.174 129.947 425.242 130.737C425.633 131.026 425.971 131.396 426.391 131.783Z" fill="#384C69"/>
<path d="M156.826 132.088C153.455 132.068 150.084 132.194 146.716 132.044C146.676 131.934 146.631 131.828 146.59 131.718C147.087 131.258 147.568 130.782 148.086 130.342C148.816 129.724 149.105 128.971 149.105 128.006C149.081 120.119 149.073 112.236 149.113 104.348C149.122 103.147 148.702 102.289 147.809 101.568C147.381 101.226 146.99 100.844 146.537 100.441C147.511 99.9933 155.257 99.8956 156.944 100.27C156.834 100.889 156.308 101.161 155.901 101.479C154.898 102.256 154.503 103.213 154.511 104.503C154.556 112.199 154.547 119.899 154.511 127.595C154.503 128.857 154.8 129.87 155.844 130.648C156.272 130.965 156.61 131.409 156.989 131.791C156.936 131.893 156.879 131.991 156.826 132.088Z" fill="#384C69"/>
<path d="M92.1283 29.3115C91.0766 32.9581 90.0493 36.5193 88.9446 40.3368C87.1346 37.724 84.652 37.4391 82.0105 37.4798C78.9246 37.5245 75.8346 37.4879 72.7487 37.4879C72.2392 37.4879 71.7296 37.4879 71.0937 37.4879C70.3966 34.9158 70.7105 32.4779 71.3954 29.8732C74.9011 29.8732 78.3498 29.9464 81.7985 29.8528C85.1942 29.7592 88.5818 29.5028 92.1283 29.3115Z" fill="#384C69"/>
<path d="M501.129 40.3937C499.621 38.1716 497.668 37.4878 495.394 37.4837C491.888 37.4797 488.386 37.4797 484.88 37.4797C484.375 37.4797 483.874 37.4797 483.368 37.4797C482.569 34.8424 482.879 32.4045 483.711 29.9138C490.575 29.7306 497.399 30.276 504.39 29.0713C503.278 32.9336 502.246 36.5273 501.129 40.3937Z" fill="#384C69"/>
<path d="M224.83 110.042C225.409 109.671 225.939 109.326 226.477 108.988C227.17 108.556 227.777 108.072 227.818 107.16C227.85 106.477 227.806 105.842 227.039 105.545C226.591 105.374 226.411 105.048 226.42 104.568C226.44 103.542 226.436 102.521 226.432 101.495C226.428 100.868 226.738 100.526 227.357 100.522C229.318 100.51 231.275 100.51 233.235 100.526C233.867 100.531 234.181 100.954 234.177 101.524C234.165 102.964 234.21 104.417 234.006 105.834C233.9 106.562 233.443 107.339 232.93 107.897C231.258 109.708 229.155 110.75 226.672 110.945C226.02 111.002 225.339 111.027 224.83 110.042Z" fill="#384C69"/>
<path d="M575.264 17.167V12.4866H573.788V11.9453H577.433L577.376 12.4866H575.925V17.167H575.264Z" fill="#384C69"/>
<path d="M583.678 11.9453C583.865 13.8256 583.963 15.4332 584 17.167H583.335C583.319 16.064 583.278 14.7739 583.217 13.5204C583.201 13.1907 583.177 12.7552 583.16 12.4866H583.144C583.083 12.6738 582.985 12.9587 582.924 13.1419L581.497 17.167H580.938L579.512 13.1419C579.446 12.9628 579.353 12.686 579.292 12.4866H579.275C579.259 12.7796 579.234 13.211 579.218 13.5204C579.161 14.6721 579.124 15.9379 579.1 17.167H578.493C578.525 15.4495 578.643 13.6709 578.815 11.9453H579.72L580.983 15.482C581.077 15.7425 581.171 16.0885 581.236 16.4018H581.252C581.314 16.1007 581.428 15.71 581.505 15.482L582.769 11.9453H583.678Z" fill="#384C69"/>
</g>
<defs>
<filter id="filter0_d" x="0" y="0" width="588" height="144" filterUnits="userSpaceOnUse" color-interpolation-filters="sRGB">
<feFlood flood-opacity="0" result="BackgroundImageFix"/>
<feColorMatrix in="SourceAlpha" type="matrix" values="0 0 0 0 0 0 0 0 0 0 0 0 0 0 0 0 0 0 127 0"/>
<feOffset dx="2" dy="2"/>
<feGaussianBlur stdDeviation="1"/>
<feColorMatrix type="matrix" values="0 0 0 0 0 0 0 0 0 0 0 0 0 0 0 0 0 0 0.25 0"/>
<feBlend mode="normal" in2="BackgroundImageFix" result="effect1_dropShadow"/>
<feBlend mode="normal" in="SourceGraphic" in2="effect1_dropShadow" result="shape"/>
</filter>
<clipPath id="clip0">
<rect width="584" height="140" fill="white"/>
</clipPath>
</defs>
</svg>
